Coordinates
version=1
nRows=14
nColumns=33
inDegrees=yes

Units are S.I. units (second, meters, Newtons, ...)
Angles are in degrees.

endheader
time	ground_thorax_rot_x	ground_thorax_rot_y	ground_thorax_rot_z	ground_thorax_tx	ground_thorax_ty	ground_thorax_tz	clav_prot_r	clav_elev_r	scapula_abduction_r	scapula_elevation_r	scapula_upward_rot_r	scapula_winging_r	shoulder_elv_r	plane_of_elev_r	axial_rot_r	elbow_flexion_r	pro_sup_r	wrist_flex_r	wrist_dev_r	clav_prot_l	clav_elev_l	scapula_abduction_l	scapula_elevation_l	scapula_upward_rot_l	scapula_winging_l	shoulder_elv_l	plane_of_elev_l	axial_rot_l	elbow_flexion_l	pro_sup_l	wrist_flex_l	wrist_dev_l	
11.9800	37.987137	14.764581	19.051336	-104.692623	769.146876	7.720627	14.892164	40.216855	42.965484	41.195714	-22.425641	2070.408296	-841.038741	149.986593	-121.910153	1089.016732	15.742162	16.827027	12.756674	5.006829	-45.000000	-36.561798	45.000000	-41.465591	-2072.876023	261.330985	137.959507	156.786228	2527.489305	16.974218	9.878811	-18.003908	
11.9900	37.867773	14.215368	18.400688	-101.644310	767.899707	7.687056	14.671192	39.925347	43.511246	40.407365	-20.945837	2069.824810	-841.272651	150.288945	-121.067276	1088.961218	17.441591	16.859850	12.506482	4.930337	-45.000000	-37.160795	45.000000	-40.159555	-2072.979265	261.090089	137.972570	156.878848	2527.386078	18.403845	9.735189	-18.065991	
12.0000	37.745557	13.710223	17.796050	-98.722370	766.814623	7.659590	14.494601	39.625302	43.989703	39.675734	-19.583619	2069.321361	-841.476425	150.553310	-120.338599	1088.908064	19.043201	16.886565	12.269020	4.857932	-45.000000	-37.751204	45.000000	-38.902114	-2073.078391	260.860107	138.001854	156.927394	2527.283724	19.698937	9.581699	-18.114744	
12.0100	37.616269	13.167287	17.112547	-95.939948	765.888905	7.642970	14.262421	39.333081	44.410202	38.937690	-18.092339	2068.850797	-841.641882	150.829344	-119.642907	1088.871195	20.603452	16.909365	12.017591	4.790768	-45.000000	-38.445316	45.000000	-37.459977	-2073.118013	260.612750	138.029824	157.001276	2527.180296	20.885467	9.439817	-18.155810	
12.0200	37.474957	12.736771	16.539121	-93.307740	765.117160	7.642552	14.021502	39.038165	44.682766	38.292071	-16.805007	2068.503680	-841.770050	151.027697	-119.106902	1088.828359	21.987145	16.917997	11.785656	4.780727	-45.000000	-39.125353	45.000000	-36.153552	-2073.138722	260.385528	138.066875	157.013815	2527.085477	21.883905	9.304183	-18.183290	
12.0300	37.325514	12.328478	15.947110	-90.833102	764.491410	7.663855	13.694204	38.757691	44.838503	37.679525	-15.483267	2068.231335	-841.858462	151.205967	-118.652980	1088.792744	23.258799	16.917711	11.553010	4.815932	-45.000000	-39.897811	45.000000	-34.762794	-2073.098576	260.152238	138.098713	157.061417	2526.996136	22.748988	9.194351	-18.205807	
12.0400	37.178054	11.992113	15.420958	-88.520185	764.001891	7.711693	13.359581	38.471293	44.910833	37.139946	-14.312775	2068.023613	-841.936181	151.322853	-118.316928	1088.745327	24.365474	16.910566	11.359176	4.893178	-45.000000	-40.662074	45.000000	-33.474407	-2073.050101	259.940409	138.131147	157.101332	2526.917312	23.483367	9.091841	-18.222182	
12.0500	37.037258	11.624508	14.835298	-86.369934	763.637280	7.789873	12.942741	38.195002	44.971108	36.594803	-13.049718	2067.801480	-842.000623	151.449405	-117.997773	1088.705210	25.387952	16.904223	11.173190	4.997452	-45.000000	-41.493863	45.000000	-32.075061	-2072.953928	259.721780	138.145402	157.215407	2526.849572	24.171500	9.011961	-18.243422	
12.0600	36.911477	11.324208	14.327963	-84.381111	763.385485	7.900771	12.575424	37.923516	45.000000	36.129210	-11.992400	2067.613560	-842.079306	151.509016	-117.799800	1088.641623	26.202744	16.897059	11.055346	5.130289	-45.000000	-42.272133	45.000000	-30.832162	-2072.874299	259.533396	138.160435	157.338527	2526.798519	24.763801	8.928698	-18.263433	
12.0700	36.799833	11.073059	13.883921	-82.550419	763.233921	8.045497	12.227733	37.676169	45.000000	35.722538	-11.064815	2067.475495	-842.135267	151.552474	-117.710742	1088.574689	26.803045	16.884158	10.974847	5.259175	-45.000000	-42.986047	45.000000	-29.707553	-2072.803836	259.365983	138.172225	157.494391	2526.760781	25.256790	8.863303	-18.284638	
12.0800	36.708295	10.884029	13.532259	-80.873395	763.170335	8.223854	11.969236	37.453666	45.000000	35.391900	-10.340615	2067.375747	-842.187040	151.567437	-117.723545	1088.493034	27.169854	16.866005	10.948029	5.356649	-45.000000	-43.570328	45.000000	-28.794646	-2072.781225	259.234785	138.180539	157.662369	2526.737498	25.636113	8.806089	-18.304427	
12.0900	36.633422	10.728251	13.245069	-79.343905	763.183179	8.434648	11.732215	37.267410	45.000000	35.106546	-9.705730	2067.312664	-842.207202	151.602777	-117.783227	1088.421865	27.350529	16.840168	10.931638	5.417687	-45.000000	-44.036598	45.000000	-28.022990	-2072.785974	259.124962	138.178410	157.854551	2526.727705	25.917164	8.774790	-18.327229	
12.1000	36.581725	10.594548	12.996982	-77.954713	763.262127	8.675726	11.544623	37.112580	45.000000	34.882693	-9.165084	2067.286537	-842.219915	151.638686	-117.870755	1088.351146	27.365446	16.814418	10.949205	5.456145	-45.000000	-44.410956	45.000000	-27.366431	-2072.828662	259.033773	138.176360	158.072672	2526.732196	26.101199	8.758292	-18.353534	
12.1100	36.550305	10.472833	12.791159	-76.696705	763.398147	8.944240	11.364399	36.983946	45.000000	34.706426	-8.683714	2067.298889	-842.211420	151.692946	-117.966116	1088.298093	27.258211	16.788847	10.976987	5.474951	-45.000000	-44.675882	45.000000	-26.807883	-2072.900849	258.953217	138.172121	158.296588	2526.743744	26.203002	8.760998	-18.383397	
